<mxfile host="app.diagrams.net" modified="2024-05-29T09:35:40.291Z" agent="Mozilla/5.0 (Macintosh; Intel Mac OS X 10_15_7) AppleWebKit/537.36 (KHTML, like Gecko) Chrome/125.0.0.0 Safari/537.36 Edg/125.0.0.0" etag="BfHO3Sy5fhOPhpljQl6D" version="24.4.9" type="github">
  <diagram name="Page-1" id="WutTKPvw1jETzjmKvok2">
    <mxGraphModel dx="978" dy="596" grid="1" gridSize="10" guides="1" tooltips="1" connect="1" arrows="1" fold="1" page="1" pageScale="1" pageWidth="850" pageHeight="1100" math="0" shadow="0">
      <root>
        <mxCell id="0" />
        <mxCell id="1" parent="0" />
        <mxCell id="DxIhkAycXD3AVKh4HSew-1" value="Home" style="rounded=1;whiteSpace=wrap;html=1;" vertex="1" parent="1">
          <mxGeometry x="250" y="180" width="120" height="60" as="geometry" />
        </mxCell>
        <mxCell id="DxIhkAycXD3AVKh4HSew-6" style="edgeStyle=orthogonalEdgeStyle;rounded=0;orthogonalLoop=1;jettySize=auto;html=1;exitX=0.5;exitY=1;exitDx=0;exitDy=0;" edge="1" parent="1" source="DxIhkAycXD3AVKh4HSew-3" target="DxIhkAycXD3AVKh4HSew-11">
          <mxGeometry relative="1" as="geometry">
            <mxPoint x="530" y="340" as="targetPoint" />
            <mxPoint x="490" y="300" as="sourcePoint" />
            <Array as="points">
              <mxPoint x="530" y="290" />
              <mxPoint x="531" y="290" />
            </Array>
          </mxGeometry>
        </mxCell>
        <mxCell id="DxIhkAycXD3AVKh4HSew-7" value="Authenticated" style="edgeLabel;html=1;align=center;verticalAlign=middle;resizable=0;points=[];" vertex="1" connectable="0" parent="DxIhkAycXD3AVKh4HSew-6">
          <mxGeometry x="0.0448" relative="1" as="geometry">
            <mxPoint as="offset" />
          </mxGeometry>
        </mxCell>
        <mxCell id="DxIhkAycXD3AVKh4HSew-2" value="About" style="rounded=0;whiteSpace=wrap;html=1;" vertex="1" parent="1">
          <mxGeometry x="250" y="330" width="120" height="60" as="geometry" />
        </mxCell>
        <mxCell id="DxIhkAycXD3AVKh4HSew-8" style="edgeStyle=orthogonalEdgeStyle;rounded=0;orthogonalLoop=1;jettySize=auto;html=1;exitX=1;exitY=0.5;exitDx=0;exitDy=0;entryX=0.5;entryY=1;entryDx=0;entryDy=0;" edge="1" parent="1" source="DxIhkAycXD3AVKh4HSew-3" target="DxIhkAycXD3AVKh4HSew-9">
          <mxGeometry relative="1" as="geometry">
            <mxPoint x="650" y="150" as="targetPoint" />
          </mxGeometry>
        </mxCell>
        <mxCell id="DxIhkAycXD3AVKh4HSew-3" value="Logon" style="rounded=0;whiteSpace=wrap;html=1;" vertex="1" parent="1">
          <mxGeometry x="470" y="180" width="120" height="60" as="geometry" />
        </mxCell>
        <UserObject label="" id="DxIhkAycXD3AVKh4HSew-4">
          <mxCell style="endArrow=classic;startArrow=classic;html=1;rounded=0;exitX=1;exitY=0.5;exitDx=0;exitDy=0;entryX=0;entryY=0.5;entryDx=0;entryDy=0;" edge="1" parent="1" source="DxIhkAycXD3AVKh4HSew-1" target="DxIhkAycXD3AVKh4HSew-3">
            <mxGeometry width="50" height="50" relative="1" as="geometry">
              <mxPoint x="400" y="350" as="sourcePoint" />
              <mxPoint x="450" y="300" as="targetPoint" />
            </mxGeometry>
          </mxCell>
        </UserObject>
        <mxCell id="DxIhkAycXD3AVKh4HSew-5" value="" style="endArrow=classic;html=1;rounded=0;exitX=0.5;exitY=1;exitDx=0;exitDy=0;entryX=0.5;entryY=0;entryDx=0;entryDy=0;" edge="1" parent="1" source="DxIhkAycXD3AVKh4HSew-1" target="DxIhkAycXD3AVKh4HSew-2">
          <mxGeometry width="50" height="50" relative="1" as="geometry">
            <mxPoint x="370" y="220" as="sourcePoint" />
            <mxPoint x="420" y="170" as="targetPoint" />
            <Array as="points" />
          </mxGeometry>
        </mxCell>
        <mxCell id="DxIhkAycXD3AVKh4HSew-10" style="edgeStyle=orthogonalEdgeStyle;rounded=0;orthogonalLoop=1;jettySize=auto;html=1;exitX=0;exitY=0.5;exitDx=0;exitDy=0;" edge="1" parent="1" source="DxIhkAycXD3AVKh4HSew-9" target="DxIhkAycXD3AVKh4HSew-3">
          <mxGeometry relative="1" as="geometry" />
        </mxCell>
        <mxCell id="DxIhkAycXD3AVKh4HSew-9" value="Message &quot; Log in Failed&quot;" style="rounded=0;whiteSpace=wrap;html=1;" vertex="1" parent="1">
          <mxGeometry x="610" y="90" width="120" height="60" as="geometry" />
        </mxCell>
        <mxCell id="DxIhkAycXD3AVKh4HSew-11" value="Dashboard" style="rounded=0;whiteSpace=wrap;html=1;" vertex="1" parent="1">
          <mxGeometry x="470" y="320" width="120" height="60" as="geometry" />
        </mxCell>
      </root>
    </mxGraphModel>
  </diagram>
</mxfile>
